#!OML:ASF I:\Actors\actors\Patient Classification 1\Patient 1\Session 1\Subject1.ASF
:FULLY-SPECIFIED
:DEGREES
1276
root 0.909036 17.4769 9.55549 10.2025 0.713123 -8.56955
lowerback 2.62156 2.51234 4.98997
upperback -8.49272 3.98177 1.91823
thorax -10.3267 1.63436 -1.18225
lowerneck -4.79192 4.51217 7.58287
upperneck 7.12559 5.43536 0.211844
head 3.38654 2.91508 -1.00654
rclavicle -1.28962e-014 -3.93594e-014
rhumerus -37.3896 43.865 -113.547
rradius 100.746
rwrist 23.4046
rhand -2.09448 -34.7915
rfingers 7.12502
rthumb 23.5828 -783.365
lclavicle -1.28962e-014 -3.93594e-014
lhumerus -55.7938 -11.2943 102.843
lradius 113.598
lwrist 75.2495
lhand -24.2434 12.0696
lfingers 7.12502
lthumb 2.24228 42.0376
rfemur -2.19294 26.6611 24.6759
rtibia 1.38102
rfoot -15.5344 -31.6659
rtoes 5.86934
lfemur 5.14688 -45.0559 -12.0462
ltibia -4.6092
lfoot -20.8021 51.0098
ltoes 7.03981
1277
root 0.904317 17.4782 9.55409 10.3234 0.761668 -8.64582
lowerback 2.81437 2.51168 4.76624
upperback -8.60953 3.99543 2.03587
thorax -10.5971 1.65702 -0.94694
lowerneck -4.59579 4.37183 7.2604
upperneck 5.85392 5.23404 1.38106
head 2.84725 2.81292 -0.596647
rclavicle 4.91992e-015 3.97569e-015
rhumerus -37.4794 43.7959 -113.339
rradius 100.987
rwrist 23.404
rhand -2.19374 -34.7231
rfingers 7.12502
rthumb 23.4876 -783.309
lclavicle 4.91992e-015 3.97569e-015
lhumerus -55.815 -11.1134 103.151
lradius 113.695
lwrist 74.9323
lhand -24.0316 12.228
lfingers 7.12502
lthumb 2.44686 42.1937
rfemur -2.26827 26.7383 24.74
rtibia 1.27975
rfoot -15.525 -31.7741
rtoes 5.97831
lfemur 4.98429 -45.2584 -11.8313
ltibia -4.59286
lfoot -21.0438 51.1765
ltoes 7.17289
1278
root 0.89861 17.4796 9.55181 10.4489 0.80319 -8.6869
lowerback 2.9858 2.48562 4.45829
upperback -8.71297 3.96784 2.18916
thorax -10.8501 1.67041 -0.620439
lowerneck -4.47694 4.22272 7.03139
upperneck 4.7122 5.03669 2.42535
head 2.39013 2.70681 -0.248142
rclavicle -1.91579e-014 6.55989e-015
rhumerus -37.6177 43.8397 -113.203
rradius 101.203
rwrist 23.4587
rhand -2.38507 -34.786
rfingers 7.12502
rthumb 23.304 -783.396
lclavicle -1.91579e-014 6.55989e-015
lhumerus -55.765 -10.8488 103.489
lradius 113.764
lwrist 74.7458
lhand -24.0055 12.1712
lfingers 7.12502
lthumb 2.47209 42.1366
rfemur -2.37452 26.8866 24.7456
rtibia 1.18411
rfoot -15.6414 -31.892
rtoes 6.39834
lfemur 4.84824 -45.5255 -11.6684
ltibia -4.61399
lfoot -21.103 51.4508
ltoes 7.19398
1279
root 0.892012 17.4805 9.55055 10.549 0.85838 -8.759
lowerback 3.14891 2.45215 4.23379
upperback -8.81002 3.93047 2.29132
thorax -11.0829 1.67086 -0.392088
lowerneck -4.51623 4.04282 6.80172
upperneck 3.80376 4.78667 3.66926
head 2.04496 2.58191 0.162667
rclavicle -3.80176e-015 -1.19271e-014
rhumerus -37.7487 43.8321 -113.237
rradius 101.332
rwrist 23.39
rhand -2.9885 -34.8368
rfingers 7.12502
rthumb 22.725 -783.519
lclavicle -3.80176e-015 -1.19271e-014
lhumerus -55.6639 -10.652 103.745
lradius 113.766
lwrist 74.6731
lhand -24.0499 11.9943
lfingers 7.12502
lthumb 2.42915 41.9602
rfemur -2.43284 27.0643 24.8157
rtibia 1.08109
rfoot -15.722 -32.0585
rtoes 6.67479
lfemur 4.77997 -45.8647 -11.5108
ltibia -4.6487
lfoot -21.3623 51.7332
ltoes 7.45377
1280
root 0.886034 17.4804 9.55033 10.5987 0.93056 -8.82111
lowerback 3.282 2.43131 4.03315
upperback -8.87676 3.90397 2.35422
thorax -11.2582 1.67471 -0.217789
lowerneck -4.62801 3.81269 6.32751
upperneck 3.03652 4.47917 5.25346
head 1.756 2.43364 0.718324
rclavicle 8.32411e-015 7.15625e-015
rhumerus -37.6635 43.6738 -113.196
rradius 101.384
rwrist 23.2325
rhand -3.64265 -34.7352
rfingers 7.12502
rthumb 22.0971 -783.493
lclavicle 8.32411e-015 7.15625e-015
lhumerus -55.4993 -10.5432 103.932
lradius 113.683
lwrist 74.6782
lhand -24.0623 11.7917
lfingers 7.12502
lthumb 2.41722 41.7577
rfemur -2.44569 27.0965 24.9018
rtibia 1.02236
rfoot -15.6722 -32.1395
rtoes 6.50974
lfemur 4.77731 -46.216 -11.4221
ltibia -4.65843
lfoot -21.6748 51.9796
ltoes 7.75032
1281
root 0.88134 17.4808 9.55131 10.6566 1.0539 -8.81265
lowerback 3.38066 2.39049 3.88726
upperback -8.96667 3.84541 2.33341
thorax -11.4301 1.65394 -0.157925
lowerneck -4.03719 3.68962 4.54329
upperneck 1.55784 4.48943 8.60777
head 1.06833 2.41435 2.03393
rclavicle -1.98785e-015 1.68967e-014
rhumerus -37.3635 43.2266 -113.055
rradius 101.453
rwrist 23.7251
rhand -2.76903 -34.4424
rfingers 7.12502
rthumb 22.9356 -783.098
lclavicle -1.98785e-015 1.68967e-014
lhumerus -55.4113 -10.5028 104.012
lradius 113.572
lwrist 74.6208
lhand -24.0386 11.4827
lfingers 7.12502
lthumb 2.44011 41.4485
rfemur -2.46239 27.0865 24.8978
rtibia 0.95009
rfoot -15.6209 -32.2425
rtoes 6.4359
lfemur 4.70053 -46.5207 -11.363
ltibia -4.64426
lfoot -21.9003 52.1365
ltoes 8.0349
1282
root 0.875373 17.4827 9.55275 10.7188 1.12351 -8.83121
lowerback 3.39261 2.35973 3.64215
upperback -9.03543 3.79435 2.41397
thorax -11.5384 1.65363 0.0693798
lowerneck -3.80169 3.51831 3.89581
upperneck 0.797033 4.35953 10.2632
head 0.74537 2.32844 2.66649
rclavicle -1.69961e-014 -1.96797e-014
rhumerus -37.4231 43.2715 -113.257
rradius 101.331
rwrist 23.3405
rhand -3.86731 -34.6388
rfingers 7.12502
rthumb 21.8814 -783.422
lclavicle -1.69961e-014 -1.96797e-014
lhumerus -55.2417 -10.3239 104.103
lradius 113.467
lwrist 74.4872
lhand -24.4675 11.8107
lfingers 7.12502
lthumb 2.02585 41.7808
rfemur -2.51655 27.0211 24.9031
rtibia 0.898391
rfoot -15.5787 -32.2426
rtoes 6.5521
lfemur 4.63763 -46.768 -11.2824
ltibia -4.63921
lfoot -22.1341 52.3028
ltoes 8.30278
